<svg stroke-miterlimit="10" viewBox="0 0 1024 1024" xml:space="preserve" xmlns="http://www.w3.org/2000/svg" clip-rule="evenodd" stroke-linecap="round" stroke-linejoin="round"><path d="M0 0h1024v1024H0V0Z" fill="none"/><g><g><path d="M479 270.4 419.5 309a1762.4 1762.4 0 0 0-63.5 41.9c0 .9 14.7 11.7 43 31.6l32 22.5 27 19 26.4 18.7c5 3.5 9.5 6.2 10.2 5.9.6-.2 7.3-4.4 14.8-9.3L530 426l86.5-56.2c8.3-5.4 15-10.3 15-11 0-.6-4.5-4.4-10-8.3l-63-44.4-15-10.6-16-11.3-19.5-13.6c-6.9-4.9-12.9-9-13.5-9.2-.5-.2-7.5 3.8-15.5 9Zm-133.7 94.9c-.5.6-4.7 12.7-9.3 26.7l-8.7 26.5c-.2.6 6.7 6 15.3 12a3155.3 3155.3 0 0 0 37.1 26.3c35 24.6 53.1 37.7 55.5 40 2.1 2 4.6 8.2 10.2 24.7 21 61.8 34.7 100.1 36.3 101.2.9.7 2 1 2.4.6.4-.5 1-20.4 1.3-44.3.4-23.9 1.1-59.7 1.7-79.5l1-35.9-2.7-2.1-60.9-43-32-22.5a2522.4 2522.4 0 0 0-45.5-31.5c-.4-.3-1.2.1-1.7.8Zm252.2 33.2-67.8 44.1a350 350 0 0 0-26.2 17.8c-.2.6-1 36.4-1.8 79.6-1 56.6-1.1 78.8-.3 79.7.8.9 5.6-1.8 19.6-10.9l24.2-15.6c6.6-4.2 3.4 3.6 26.8-65.6a905.8 905.8 0 0 1 16.6-47c1.7-2.4 6.8-6.2 25.9-18.9 12.5-8.4 41.5-27.4 46.2-30.3 1.7-1.1 1.4-2.5-5-21.1l-10-29.3c-2-6-3.8-9.6-4.7-9.7a696 696 0 0 0-43.5 27.2Z" fill="#3dc7d6"/><path d="m714 407.8-67 43.6a921 921 0 0 0-44 29c0 .5 26.4 19.7 48 34.9l33 23.2a1239 1239 0 0 0 55.7 38.7c2.4 1.2 2.5 1.1 33.3-19l79.3-51.3a271 271 0 0 0 26.7-18.6c0-.7-3.3-3.5-7.2-6.3l-49.6-34.9L798 430l-25-17.6c-24.3-17.3-30.5-21.4-32.1-21.3-.8 0-12.9 7.5-26.9 16.7Zm-121.6 87.4c-1.6 2.5-43.1 129.3-42.7 130.3.2.5 5.7 4.7 12.1 9.2a27179.9 27179.9 0 0 1 101.7 71.5l24.3 17.1c35.7 25.3 42.1 29.7 43 29.7 1.2 0 1.9-21.3 3.3-98.4.5-34 .7-62.2.2-62.6-.4-.4-19.2-13.7-41.8-29.5l-58-40.8a699 699 0 0 0-40-27.3c-.7-.3-1.7 0-2.1.8Zm285 11.8-22.1 14.2-71.8 46.6a1841.2 1841.2 0 0 0-31.6 20.8c-1.4 1.3-1.7 7.8-2.3 57.2-.3 30.6-.9 66.6-1.3 79.9-.5 20.4-.4 24.3.8 24.3.8 0 8.6-4.7 17.4-10.5l37.5-24.3 56.5-36.7a93616.6 93616.6 0 0 1 72.3-47c1.8-1.7 4.3 5.9-26.2-81.9a1583 1583 0 0 1-15.6-46.1c0-.7-.6-1.8-1.3-2.4-1.1-.8-3.9.5-12.3 5.9Z" fill="#2f7e9d"/><path d="m260 415.1-94 61a469.6 469.6 0 0 0-18.9 12.6l-2.4 2 4.6 3.4c13.6 10.1 32.7 23.6 100.7 71.4l23.4 16.4c4.9 3.5 9.6 6.1 10.5 5.8.9-.2 21.2-13.1 45.1-28.7 39.4-25.5 52.4-34 81.9-53.3 5.2-3.4 9.6-6.7 9.8-7.3.4-1.1-3.7-4.1-27.7-20.9L303 414a156 156 0 0 0-19.5-12.6c-1.2-.2-10.2 5-23.5 13.7ZM129.8 517.7c-36.4 109-39.1 117.7-37.2 119.1l20.4 14.4a13762 13762 0 0 1 67.9 47.8l32 22.5 28.5 20.1c22.5 16 30.5 21.4 31.6 21.4.5 0 1-1.9 1-4.3l1.5-79.7c1-54.1 1.1-75.8.3-76.7-1-1.3-8.9-6.9-63.3-45.2L182 535.6a906.7 906.7 0 0 0-46.5-31.6c-.6 0-3.2 6.2-5.7 13.7Zm285.6 1.6-18.5 12.1c-22.9 14.7-82.9 53.8-92.4 60.1l-12 8-.6 35c-1.9 107.4-2 125.5-.7 125.4.7 0 10.4-6 21.5-13.2l41-26.7a18946 18946 0 0 0 108.5-70.4 101 101 0 0 0 13.2-9.3c.3-.7-6-20.1-14-43-8-23-17.9-51.6-21.9-63.6-7.7-22.5-8.1-23.7-9.3-23.7-.4 0-7 4.2-14.8 9.3Z" fill="#ffca38"/></g></g></svg>
